<?xml version="1.0" encoding="UTF-8"?>
<svg version="1.1" xmlns="http://www.w3.org/2000/svg" width="1024" height="1024">
<path d="M0 0 C337.92 0 675.84 0 1024 0 C1024 337.92 1024 675.84 1024 1024 C686.08 1024 348.16 1024 0 1024 C0 686.08 0 348.16 0 0 Z " fill="#000000" transform="translate(0,0)"/>
<path d="M0 0 C1.53979831 -0.00576172 1.53979831 -0.00576172 3.11070365 -0.01163983 C4.79992618 -0.01034011 4.79992618 -0.01034011 6.52327442 -0.00901413 C8.31972242 -0.01347081 8.31972242 -0.01347081 10.1524623 -0.01801753 C13.47812793 -0.02519782 16.8037419 -0.02787685 20.12941158 -0.028615 C23.7157832 -0.03046636 27.30214364 -0.03801416 30.8885088 -0.04475021 C38.73159975 -0.05833123 46.5746856 -0.064358 54.41778636 -0.06876087 C59.31586328 -0.0715239 64.21393823 -0.07576139 69.11201382 -0.08026505 C82.67540043 -0.09245782 96.23878546 -0.10275685 109.80217743 -0.10614014 C110.67025059 -0.1063597 111.53832376 -0.10657927 112.43270217 -0.10680549 C113.30284535 -0.10702377 114.17298852 -0.10724204 115.06949967 -0.10746694 C116.83272183 -0.1079104 118.59594399 -0.10835696 120.35916615 -0.10880661 C121.23378409 -0.10902804 122.10840203 -0.10924947 123.00952355 -0.10947761 C137.17783893 -0.11342465 151.34610285 -0.13087578 165.51439836 -0.15416613 C180.06348016 -0.1778892 194.61253615 -0.19034244 209.1616376 -0.19150805 C217.32929716 -0.19242432 225.49688968 -0.19816438 233.66453075 -0.21632767 C240.62034533 -0.23174161 247.57607214 -0.23684153 254.53190055 -0.22858956 C258.07935124 -0.22468751 261.62662528 -0.2255907 265.17405415 -0.23964691 C269.0243421 -0.25476328 272.87438257 -0.24650602 276.72469044 -0.23606491 C277.83968518 -0.24412132 278.95467993 -0.25217772 280.1034624 -0.26047826 C291.54473273 -0.187952 299.43931689 2.86467415 307.66800404 10.79549026 C314.79568463 18.48495849 315.38202026 26.41453527 315.32912159 36.49798965 C315.3371999 38.34856683 315.3371999 38.34856683 315.3454414 40.23652941 C315.35723984 43.64452474 315.35566531 47.05202875 315.34827459 50.46000421 C315.34353431 54.14175628 315.35606032 57.82345649 315.366292 61.5051918 C315.38346829 68.71147435 315.38432248 75.91766965 315.3790791 83.12396734 C315.37503413 88.98230891 315.37648483 94.84062473 315.38182735 100.69896507 C315.38257578 101.53344174 315.3833242 102.36791841 315.3840953 103.22768225 C315.38562681 104.9230324 315.38716516 106.61838255 315.38871027 108.31373269 C315.40243097 124.20413243 315.39700055 140.09448291 315.38552506 155.98488153 C315.37559221 170.5150933 315.38853498 185.04517775 315.41245925 199.57536989 C315.43685434 214.50427369 315.44645717 229.4331182 315.43980652 244.36204153 C315.43631533 252.73980224 315.4385398 261.11746503 315.45605755 269.49521065 C315.47078462 276.62662978 315.47140837 283.75788202 315.45398664 290.8892979 C315.44547852 294.52592652 315.44332217 298.16225706 315.45863819 301.79887009 C315.47505321 305.74535978 315.46032838 309.69139033 315.44264698 313.63788223 C315.45225199 314.78127609 315.46185699 315.92466994 315.47175306 317.10271209 C315.36142196 329.07499413 310.59527329 337.53622008 302.16800404 345.88924026 C289.21704112 356.76367748 271.53381034 354.70103078 255.75345325 354.64900589 C252.99108045 354.65223306 250.2287342 354.66141308 247.4663744 354.67024612 C240.76607361 354.68795614 234.06595288 354.68422548 227.36564527 354.67259556 C221.91742698 354.66353323 216.46925887 354.66234929 211.02103519 354.66669083 C210.24332065 354.66730376 209.4656061 354.66791669 208.66432444 354.6685482 C207.08405341 354.66982719 205.5037824 354.67112405 203.9235114 354.67243856 C189.13463001 354.68382193 174.34584809 354.67076519 159.55698301 354.6492371 C146.88479315 354.63136107 134.21274986 354.6344787 121.54056263 354.65291214 C106.7986819 354.67434641 92.05688811 354.68273092 77.31499398 354.67046309 C75.74140145 354.66918898 74.1678089 354.66793149 72.59421635 354.66669083 C71.82011992 354.66607372 71.0460235 354.66545662 70.24846961 354.66482082 C64.80974973 354.66137611 59.3710853 354.6671771 53.932374 354.67660904 C47.30031375 354.68785857 40.66844273 354.68472692 34.036404 354.66348606 C30.65662726 354.65301596 27.2774246 354.65095839 23.89761066 354.66208267 C20.22561986 354.67305245 16.55450829 354.65925552 12.88257313 354.63936234 C11.29806522 354.65274667 11.29806522 354.65274667 9.68154705 354.66640139 C-2.17708882 354.54223249 -11.56287343 350.54724782 -19.96480846 342.24861526 C-29.09801159 332.38011189 -31.36388235 322.37425881 -31.31925488 309.23352432 C-31.32308042 308.03811817 -31.32690597 306.84271201 -31.33084744 305.61108142 C-31.33936358 302.30546536 -31.33895034 299.00007242 -31.33466685 295.6944629 C-31.33219626 292.12447899 -31.34121797 288.55452102 -31.34870434 284.98454666 C-31.3614446 277.99504556 -31.36324583 271.00558288 -31.36090408 264.01607212 C-31.35911983 258.33315849 -31.36087284 252.65025652 -31.36512852 246.96734428 C-31.36572371 246.1579991 -31.3663189 245.34865391 -31.36693212 244.51478312 C-31.3681439 242.87049017 -31.36935803 241.22619722 -31.3705745 239.58190427 C-31.38144766 224.1659971 -31.37928873 208.7501118 -31.37318965 193.3342034 C-31.36802196 179.24111553 -31.37927242 165.14809681 -31.39828787 151.05502262 C-31.41767551 136.57476728 -31.42592056 122.09454463 -31.42216462 107.61427623 C-31.42025382 99.48855331 -31.42272824 91.36288922 -31.43687916 83.2371769 C-31.44880581 76.3187868 -31.45018355 69.40049176 -31.43808899 62.48210033 C-31.43220899 58.9547619 -31.43107629 55.42759721 -31.44309139 51.90027046 C-31.45598571 48.07018876 -31.44546462 44.24036891 -31.43278027 40.41028214 C-31.44015455 39.30413754 -31.44752884 38.19799294 -31.45512658 37.05832881 C-31.37988822 26.23980785 -28.88418648 17.61122584 -22.05855846 9.13142776 C-16.0267262 3.25832793 -8.37118527 0.01176791 0 0 Z " fill="#000000" transform="translate(134.0585584640503,319.8685722351074)"/>
<path d="M0 0 C0.92245514 -0.00852997 1.84491028 -0.01705994 2.7953186 -0.02584839 C3.80525879 -0.02494202 4.81519897 -0.02403564 5.85574341 -0.02310181 C6.92104279 -0.02981903 7.98634216 -0.03653625 9.08392334 -0.04345703 C12.61484406 -0.06249609 16.1455753 -0.06636424 19.67654419 -0.06851196 C22.12650634 -0.0749358 24.57646771 -0.08166385 27.02642822 -0.08868408 C32.16616596 -0.10067167 37.30583642 -0.10436338 42.44558716 -0.10317993 C49.03556218 -0.10297667 55.62510631 -0.13028034 62.21497917 -0.16472435 C67.27642808 -0.18694855 72.33777257 -0.19101884 77.39926529 -0.18996048 C79.82897553 -0.19232313 82.25868836 -0.20118381 84.68835068 -0.21662521 C88.08560205 -0.23619375 91.48191481 -0.23048235 94.87918091 -0.21841431 C95.88507263 -0.22965332 96.89096436 -0.24089233 97.92733765 -0.25247192 C102.31540669 -0.21280851 104.78911579 -0.17345041 108.5796051 2.18777466 C112.63052519 6.58182476 112.80497007 10.26188438 112.79763794 16.10336304 C112.80192307 16.86033478 112.80620819 17.61730652 112.81062317 18.3972168 C112.81635565 19.99586998 112.8168747 21.59454923 112.81253052 23.19320679 C112.80937634 25.62725845 112.83282142 28.06008703 112.85818481 30.49398804 C112.86045865 32.05127818 112.86116091 33.60857157 112.86013794 35.16586304 C112.86934769 35.88792938 112.87855743 36.60999573 112.88804626 37.35394287 C112.84541278 42.05865342 112.02348368 45.29314762 109.49685669 49.26742554 C106.49685669 51.26742554 106.49685669 51.26742554 103.49685669 51.26742554 C103.49685669 51.92742554 103.49685669 52.58742554 103.49685669 53.26742554 C104.07435669 53.49816772 104.65185669 53.72890991 105.24685669 53.96664429 C108.08579664 55.60790645 109.53085008 57.45730344 111.49685669 60.07992554 C112.48685669 61.35803101 112.48685669 61.35803101 113.49685669 62.66195679 C119.04635012 71.87483229 119.76837045 80.63328366 119.54373169 91.13070679 C119.5252417 92.21320206 119.50675171 93.29569733 119.48770142 94.41099548 C119.3996752 98.93879231 119.30091321 103.46134051 119.08230591 107.98495483 C118.15082456 122.42473315 118.15082456 122.42473315 123.86209106 135.19076538 C127.10111774 138.67062932 130.60636211 141.71112074 134.36662292 144.61296082 C148.64436843 155.70189699 167.04697939 171.35939821 169.49685669 190.26742554 C169.8153423 197.26470225 169.68692657 204.26798017 169.49685669 211.26742554 C170.61301976 210.16485579 171.72722171 209.06030055 172.84060669 207.95492554 C173.46129028 207.34004272 174.08197388 206.72515991 174.72146606 206.09164429 C176.22007588 204.55181858 177.62129501 202.91809955 178.99685669 201.26742554 C181.49685669 199.26742554 181.49685669 199.26742554 184.82888794 199.31039429 C189.341832 200.487893 190.71535828 202.03093674 193.68435669 205.57992554 C194.61997616 206.67380158 195.55889727 207.76486056 196.50076294 208.85336304 C196.98432251 209.41636108 197.46788208 209.97935913 197.96609497 210.55941772 C201.00953513 213.95525622 204.35845371 217.06968081 207.70071411 220.16903687 C210.74336332 223.1007853 212.22140565 225.02493386 212.49685669 229.26742554 C211.3143177 231.2506609 211.3143177 231.2506609 209.50567627 233.12651062 C208.85400608 233.81539682 208.20233589 234.50428303 207.53091812 235.21404457 C206.85967785 235.89166029 206.18843758 236.56927601 205.49685669 237.26742554 C204.91815701 237.86883047 204.33945732 238.4702354 203.74322128 239.08986473 C201.96620916 240.92028229 200.16487063 242.723402 198.35574341 244.52206421 C197.68000275 245.1979509 197.00426208 245.87383759 196.30804443 246.57020569 C194.09990946 248.77765068 191.88826489 250.98154249 189.67654419 253.18539429 C188.12889021 254.73117981 186.58145937 256.27718877 185.03424072 257.82341003 C180.9778092 261.87604152 176.9183852 265.92566234 172.85830688 269.97463989 C168.72950219 274.09320821 164.60352897 278.2146109 160.47732544 282.33578491 C153.81461325 288.98972851 147.1501853 295.64194772 140.48348999 302.29190063 C139.897742 302.87620346 139.31199402 303.46050629 138.70849609 304.06251526 C138.1599764 304.60770939 137.6114567 305.15290352 137.04631519 305.71461868 C135.59139906 307.17267886 134.15882829 308.65293966 132.72795105 310.13459778 C130.22230246 312.52988727 128.95570923 313.25556223 125.49685669 313.26742554 C123.59036255 312.15463257 123.59036255 312.15463257 121.77420044 310.40023804 C120.74528687 309.42619019 120.74528687 309.42619019 119.69558716 308.4324646 C118.9700061 307.71800171 118.24442505 307.00353882 117.49685669 306.26742554 C116.73389282 305.54522827 115.97092896 304.82303101 115.18484497 304.07894897 C112.78265422 301.79298528 110.41857182 299.47265768 108.05935669 297.14242554 C107.24531372 296.35738647 106.43127075 295.57234741 105.59255981 294.76351929 C104.43337036 293.61689819 104.43337036 293.61689819 103.25076294 292.44711304 C102.20384277 291.42206665 102.20384277 291.42206665 101.13577271 290.37631226 C99.23771829 287.93397738 98.6859737 286.3437704 98.49685669 283.26742554 C100.03060753 281.01792431 101.57916234 279.18511988 103.49685669 277.26742554 C102.63576294 277.42855835 101.77466919 277.58969116 100.88748169 277.75570679 C87.21211513 279.8196158 75.02199796 277.98943554 63.49685669 270.26742554 C56.30327208 264.54102561 49.92768284 257.82139517 43.49685669 251.26742554 C43.31123169 252.46367554 43.12560669 253.65992554 42.93435669 254.89242554 C41.84212472 258.99372041 40.37931596 261.28600585 37.02810669 263.88461304 C27.62318193 269.0224886 16.29516445 271.46192602 5.68435669 271.32992554 C4.9914856 271.32541382 4.2986145 271.3209021 3.58474731 271.31625366 C1.88874601 271.3045571 0.19278966 271.28662478 -1.50314331 271.26742554 C1.11808048 274.58250269 3.40893673 277.27764519 6.87185669 279.70492554 C7.73810669 280.55055054 8.60435669 281.39617554 9.49685669 282.26742554 C9.44205519 288.15554231 7.68827827 290.84270476 3.61404419 294.94711304 C3.12155182 295.44534576 2.62905945 295.94357849 2.12164307 296.45690918 C1.08154882 297.50106686 0.03391645 298.53776423 -1.02072144 299.56723022 C-2.62409436 301.13845776 -4.19290447 302.73915813 -5.76095581 304.34555054 C-6.77987106 305.36050059 -7.80064618 306.37358764 -8.82345581 307.38461304 C-9.74400757 308.29839722 -10.66455933 309.2121814 -11.61300659 310.15365601 C-15.02592393 312.64977345 -17.30815646 313.13402483 -21.50314331 313.26742554 C-24.93038966 311.29675889 -27.15874984 308.53018241 -29.7013855 305.56542969 C-33.24378193 301.50459537 -36.97867735 297.70164952 -40.83126831 293.93685913 C-42.26986061 292.52123446 -43.70841695 291.10557324 -45.14694214 289.68988037 C-45.89795197 288.95272167 -46.64896179 288.21556297 -47.42272949 287.45606613 C-51.42718845 283.52070314 -55.41487501 279.5683828 -59.40548706 275.61898804 C-64.47048559 270.60806096 -69.54041081 265.60243769 -74.62863159 260.61508179 C-78.75611987 256.56854168 -82.86644532 252.50526699 -86.96566772 248.4301033 C-88.52879992 246.88242653 -90.09821515 245.34106919 -91.67391968 243.80619431 C-93.86905051 241.66637702 -96.04161804 239.5058997 -98.21017456 237.33920288 C-98.86667496 236.70944046 -99.52317535 236.07967804 -100.1995697 235.43083191 C-104.50483724 231.06547659 -104.50483724 231.06547659 -104.49612427 226.96058655 C-103.37488736 223.91957001 -102.19201451 222.37767107 -99.86251831 220.13851929 C-99.12130737 219.41342163 -98.38009644 218.68832397 -97.61642456 217.94125366 C-96.83654175 217.20326538 -96.05665894 216.4652771 -95.25314331 215.70492554 C-94.48872925 214.96307007 -93.72431519 214.2212146 -92.93673706 213.45687866 C-91.45830207 212.02312866 -89.97547928 210.59388576 -88.48776245 209.16976929 C-84.04831379 204.98995286 -84.04831379 204.98995286 -80.06564331 200.39242554 C-78.50314331 199.26742554 -78.50314331 199.26742554 -75.70236206 199.41586304 C-71.85312064 200.44044744 -70.42377055 201.85736276 -67.75314331 204.76742554 C-64.94886729 207.94448117 -64.94886729 207.94448117 -61.50314331 210.26742554 C-61.54954956 209.47980835 -61.59595581 208.69219116 -61.64376831 207.88070679 C-62.08562686 194.54604699 -58.74173687 184.67499064 -50.50314331 174.26742554 C-49.96818237 173.53137085 -49.43322144 172.79531616 -48.88204956 172.03695679 C-41.9790006 162.68390484 -33.35739972 154.74400918 -24.50314331 147.26742554 C-23.44539351 146.35780176 -22.38814394 145.4475961 -21.33126831 144.53695679 C-20.18054799 143.55090457 -19.02950511 142.56522866 -17.87814331 141.57992554 C-17.33947632 141.11586304 -16.80080933 140.65180054 -16.24581909 140.17367554 C-6.46779557 131.86010944 -6.46779557 131.86010944 -0.12814331 131.51742554 C0.74584106 131.46070679 1.61982544 131.40398804 2.52029419 131.34555054 C3.49869263 131.30687866 3.49869263 131.30687866 4.49685669 131.26742554 C4.462052 130.25422241 4.42724731 129.24101929 4.39138794 128.19711304 C4.36323074 126.84556724 4.33593266 125.49400335 4.30935669 124.14242554 C4.28421997 123.47726929 4.25908325 122.81211304 4.23318481 122.12680054 C4.16368106 117.40054524 4.94100775 114.24319056 7.49685669 110.26742554 C11.36574816 107.99160703 14.22023008 107.13041998 18.62185669 107.45492554 C22.69612434 107.70912841 22.69612434 107.70912841 25.12185669 104.45492554 C26.29748169 102.87711304 26.29748169 102.87711304 27.49685669 101.26742554 C32.0863776 98.39230416 35.51632464 97.99534087 40.87185669 98.01742554 C47.15401933 97.85091959 50.40373925 96.55421969 54.74295044 91.99008179 C58.60883818 88.193074 63.20501649 87.41096334 68.43435669 86.82992554 C79.4132135 87.42391357 86.14434845 95.32702876 93.24685669 102.76742554 C94.77229905 104.3431519 96.30138461 105.91520977 97.83285522 107.4850769 C99.21530253 108.905587 100.58830943 110.33526681 101.96072388 111.76547241 C104.35658723 114.1290465 106.82953325 116.21932357 109.49685669 118.26742554 C109.59662798 112.91469602 109.66874619 107.56252197 109.71658325 102.20907593 C109.73655012 100.39257361 109.76373356 98.57613432 109.7986145 96.75985718 C110.04582257 83.54513186 109.78965229 71.98110451 100.66122437 61.47709656 C94.085898 54.7641391 87.63269947 51.55120035 78.17992496 51.35146713 C76.08547434 51.34595796 73.99337659 51.37531389 71.89920044 51.40805054 C70.41430029 51.40841532 68.92939785 51.40639535 67.44450378 51.40213013 C64.35029892 51.40084375 61.25752937 51.42354711 58.16360474 51.46469116 C54.22390238 51.51580984 50.28644882 51.51354417 46.34653378 51.4940834 C43.2860555 51.48372304 40.22608228 51.49829253 37.16568184 51.52046967 C35.71423153 51.5287549 34.26272546 51.53037478 32.81126213 51.52481842 C22.62445873 51.50816894 15.27935004 53.07002608 6.94607544 59.11898804 C0.53498746 65.57272183 -4.51766815 74.26070711 -4.70846558 83.55526733 C-4.7284108 84.41593307 -4.74835602 85.27659882 -4.76890564 86.16334534 C-4.78561813 87.08843399 -4.80233063 88.01352264 -4.81954956 88.96664429 C-4.85072121 90.39192192 -4.85072121 90.39192192 -4.88252258 91.84599304 C-4.94792383 94.8822301 -5.00685935 97.91855385 -5.06564331 100.95492554 C-5.10883749 103.01287722 -5.15245207 105.07082013 -5.19650269 107.12875366 C-5.30359562 112.1748887 -5.40488977 117.22111096 -5.50314331 122.26742554 C-8.717656 123.87468188 -11.93926867 123.32490739 -15.50314331 123.26742554 C-15.5782542 117.9696042 -15.63219089 112.67210429 -15.66793823 107.37387085 C-15.68286706 105.57791737 -15.70321755 103.78199931 -15.72946167 101.98617554 C-16.00063374 82.92969134 -14.36343801 66.56709557 -0.50314331 52.26742554 C-1.59626831 51.83430054 -2.68939331 51.40117554 -3.81564331 50.95492554 C-6.59110829 49.76063454 -8.65143568 48.73636905 -10.50314331 46.26742554 C-11.70887646 42.6502261 -11.70335364 39.29801003 -11.74142456 35.52914429 C-11.74949631 34.7707576 -11.75756805 34.01237091 -11.7658844 33.23100281 C-11.77970513 31.62638624 -11.79043627 30.02174052 -11.79830933 28.41708374 C-11.80982812 26.78092805 -11.8302786 25.14480991 -11.85983276 23.50888062 C-11.90261834 21.14037634 -11.91869275 18.77298759 -11.92892456 16.40414429 C-11.94643265 15.67894089 -11.96394073 14.95373749 -11.98197937 14.20655823 C-11.96025641 9.07877995 -10.7508402 6.1998137 -7.50314331 2.26742554 C-4.34849381 0.16432587 -3.60102527 0.0150508 0 0 Z " fill="#FCFCFC" transform="translate(227.50314331054688,348.7325744628906)"/>
<path d="M0 0 C1.04072474 -0.00445784 2.08144947 -0.00891569 3.15371132 -0.01350862 C4.87443887 -0.01323207 4.87443887 -0.01323207 6.62992859 -0.01294994 C8.4536049 -0.01846498 8.4536049 -0.01846498 10.31412315 -0.02409142 C13.69519252 -0.03322103 17.07621333 -0.03782858 20.45729041 -0.04048073 C24.10166157 -0.04438327 27.74601867 -0.05396181 31.39038086 -0.0626936 C40.19608 -0.08246193 49.00178029 -0.09252578 57.80749607 -0.10142139 C61.9552372 -0.10580466 66.10297705 -0.11117146 70.25071716 -0.11641026 C84.04138423 -0.13342474 97.83205049 -0.14791774 111.62272644 -0.155159 C115.20203146 -0.15706887 118.78133648 -0.1589892 122.36064148 -0.16094494 C123.25025338 -0.16142868 124.13986527 -0.16191242 125.05643511 -0.16241082 C139.4595072 -0.17070664 153.86249611 -0.19603499 168.2655319 -0.22852562 C183.05641397 -0.26161871 197.84725382 -0.27960989 212.6381731 -0.28280324 C220.9411923 -0.28496651 229.24409029 -0.29368813 237.54707336 -0.31926441 C244.62034963 -0.34100238 251.69347527 -0.34900674 258.76678115 -0.33929763 C262.37325708 -0.33476152 265.97942242 -0.33659837 269.58585548 -0.35605907 C273.5034249 -0.3770152 277.42056966 -0.36667748 281.33818054 -0.35352612 C282.46748647 -0.36449536 283.59679239 -0.37546461 284.76031971 -0.38676625 C297.40546944 -0.28455447 306.34554096 4.22111906 315.99198914 12.13422108 C316.65198914 12.65629139 317.31198914 13.1783617 317.99198914 13.71625233 C324.7179498 19.64650782 329.57829333 29.33782234 330.99198914 38.13422108 C331.08136955 39.90379108 331.12273555 41.67618132 331.12621021 43.44800377 C331.13066806 44.50602748 331.1351259 45.5640512 331.13971883 46.65413624 C331.13944229 48.38844777 331.13944229 48.38844777 331.13916016 50.15779591 C331.14283684 51.39091761 331.14651353 52.62403931 331.15030164 53.89452833 C331.15941234 57.31475451 331.16403462 60.73493277 331.16669095 64.15516651 C331.17060101 67.84519338 331.18017885 71.53520645 331.18890381 75.22522449 C331.20864843 84.13539681 331.2187319 93.04557024 331.2276316 101.95575896 C331.23201779 106.15467109 331.23738374 110.35358196 331.24262047 114.5524931 C331.25963076 128.5156643 331.27412413 142.47883472 331.28136921 156.44201469 C331.28327901 160.06394483 331.28519936 163.68587495 331.28715515 167.30780506 C331.28763889 168.2079861 331.28812263 169.10816715 331.28862103 170.0356264 C331.29691837 184.6124915 331.32225118 199.18927445 331.35473583 213.76610369 C331.38783529 228.74124591 331.40582058 243.71634642 331.40901345 258.6915254 C331.41117587 267.09570946 331.41988529 275.49977374 331.44547462 283.90392208 C331.46722111 291.06239368 331.47521269 298.22071639 331.46550784 305.37921727 C331.46097452 309.02836025 331.46279235 312.67719628 331.48226929 316.32629681 C331.50325003 320.29157735 331.49287903 324.25643916 331.47973633 328.22176075 C331.4961902 329.93264971 331.4961902 329.93264971 331.51297647 331.67810208 C331.40355536 345.4024931 326.56250807 356.1421038 317.49198914 366.25922108 C306.86386425 376.47857193 293.24506761 379.44151528 279.0252533 379.40164661 C277.8344874 379.40617773 276.6437215 379.41070884 275.41687179 379.41537726 C272.12881208 379.42581403 268.84089065 379.42735284 265.55281973 379.42498851 C261.99985294 379.42457905 258.44691833 379.43563177 254.89396667 379.44510365 C247.9393626 379.46168677 240.98479243 379.46721198 234.03017023 379.4683284 C228.37447108 379.46928016 222.71878308 379.47339684 217.06308746 379.47972965 C201.01257665 379.49733481 184.96209254 379.50656967 168.91157201 379.5050687 C168.04704521 379.50498879 167.18251841 379.50490888 166.29179382 379.50482655 C165.42620605 379.50474478 164.56061827 379.50466302 163.66880056 379.50457878 C149.64500736 379.50376611 135.62132161 379.52290089 121.59755948 379.55110328 C107.18280244 379.57986221 92.76809775 379.59364192 78.3533113 379.59191573 C70.26664041 379.59125286 62.18008218 379.59669977 54.09343719 379.61827183 C47.20768183 379.6365233 40.32209019 379.64079855 33.43632105 379.62725298 C29.9269024 379.62074319 26.41779751 379.62053334 22.90840912 379.63795948 C19.09421465 379.65343935 15.28083696 379.64408414 11.46665955 379.6286974 C10.3709137 379.63898452 9.27516785 379.64927165 8.14621758 379.65987051 C-5.43281235 379.53932895 -16.24859554 374.63620994 -26.13301086 365.50922108 C-36.81357288 354.33833386 -40.47560414 341.65947412 -40.39569092 326.59203053 C-40.40107646 325.36350937 -40.40646199 324.13498822 -40.41201073 322.86923915 C-40.42378367 319.48488462 -40.42224684 316.10102666 -40.41484392 312.71669257 C-40.41009389 309.05671261 -40.42263831 305.39678432 -40.43286133 301.73682117 C-40.45001954 294.57626038 -40.45089545 287.41578745 -40.44564842 280.25521144 C-40.44159952 274.43175371 -40.44305883 268.60832187 -40.44839668 262.78486538 C-40.4491451 261.95458994 -40.44989353 261.12431451 -40.45066463 260.26887921 C-40.45219618 258.58191205 -40.45373453 256.8949449 -40.4552796 255.20797775 C-40.46899416 239.40281171 -40.46357456 223.59769523 -40.45209438 207.79253034 C-40.44216565 193.35244574 -40.4550983 178.91248935 -40.47902858 164.47242453 C-40.50344775 149.62479892 -40.51302037 134.77723294 -40.50637585 119.92958766 C-40.50288956 111.60203118 -40.50507647 103.27457322 -40.52262688 94.94703197 C-40.53738426 87.85713091 -40.53793842 80.76739775 -40.52055597 73.67749985 C-40.51207207 70.06466432 -40.50983172 66.45212827 -40.52520752 62.83930874 C-40.54171455 58.9118419 -40.52684212 54.98483184 -40.50921631 51.05736256 C-40.51882132 49.93087526 -40.52842632 48.80438795 -40.53832239 47.64376467 C-40.42375322 35.17368996 -37.0099424 24.73324594 -29.00801086 15.13422108 C-28.42277649 14.41363514 -27.83754211 13.6930492 -27.23457336 12.95062733 C-20.56661674 5.50896266 -10.08928677 0.02002399 0 0 Z M-21.19551086 24.88422108 C-25.72164817 31.23503153 -28.12642901 38.37550061 -28.14223194 46.16878223 C-28.14668979 47.18998095 -28.15114763 48.21117966 -28.15574056 49.26332378 C-28.1555562 50.38353483 -28.15537183 51.50374588 -28.15518188 52.65790272 C-28.15885857 53.84933447 -28.16253526 55.04076622 -28.16632336 56.26830196 C-28.17544241 59.57677221 -28.1800582 62.88519289 -28.18271267 66.19367099 C-28.18661944 69.76169685 -28.19619763 73.32970839 -28.20492554 76.89772511 C-28.22468115 85.51613584 -28.23475577 94.13454774 -28.24365333 102.75297546 C-28.24803838 106.81391635 -28.25340469 110.87485593 -28.2586422 114.93579578 C-28.27565484 128.43998411 -28.29014772 141.94417163 -28.29739094 155.44836903 C-28.29930076 158.95221425 -28.30122111 162.45605947 -28.30317688 165.95990467 C-28.30366062 166.83074507 -28.30414436 167.70158546 -28.30464276 168.59881496 C-28.31293819 182.69722203 -28.33826669 196.79554412 -28.37075756 210.8939141 C-28.40386066 225.37633931 -28.4218427 239.85872139 -28.42503518 254.34118462 C-28.42719745 262.46928203 -28.43590435 270.59725557 -28.46149635 278.72531605 C-28.48324796 285.64958731 -28.49123199 292.57370462 -28.48152957 299.49800617 C-28.47699749 303.02765542 -28.47880663 306.55698734 -28.49829102 310.08659267 C-28.5192836 313.92274853 -28.50889661 317.75847197 -28.49575806 321.5946703 C-28.51221193 323.24821821 -28.51221193 323.24821821 -28.5289982 324.93517113 C-28.42056976 338.10268299 -24.19069217 347.7463203 -15.09394836 357.10297108 C-8.37449831 363.42086037 -0.43898216 367.24884795 8.8519659 367.26844215 C9.83423057 367.2729 10.81649523 367.27735784 11.82852548 367.28195077 C12.90525398 367.28176641 13.98198248 367.28158205 15.09133911 367.2813921 C16.81004978 367.28690713 16.81004978 367.28690713 18.56348187 367.29253358 C21.74459678 367.30165108 24.92568138 367.30626808 28.10680711 367.30892289 C31.53783681 367.31283032 34.96885164 367.32240853 38.39987183 367.33113575 C46.68754691 367.35089044 54.9752232 367.36096629 63.26291594 367.36986354 C67.16881918 367.37424912 71.07472107 367.37961533 74.98062325 367.38485241 C87.9709657 367.40186567 100.96130732 367.41635795 113.9516592 367.42360115 C117.3221175 367.42551096 120.69257579 367.4274313 124.06303406 367.42938709 C124.90071538 367.42987083 125.73839671 367.43035457 126.60146231 367.43085297 C140.15924051 367.43914616 153.71693027 367.4644706 167.27466988 367.49696777 C181.20452392 367.53008364 195.13433309 367.5480541 209.06422669 367.55124539 C216.8810433 367.55340658 224.69773105 367.56209749 232.5145092 367.58770657 C239.17451739 367.60947574 245.83436541 367.61743368 252.49440514 367.60773978 C255.88856436 367.60321251 259.28212721 367.60719591 262.67628479 367.62450123 C266.36772705 367.64226361 270.05834257 367.63509138 273.74978638 367.62196827 C274.80643838 367.63293752 275.86309038 367.64390676 276.95176214 367.65520841 C287.92417385 367.56159215 299.00719611 365.05134637 306.99198914 357.13422108 C315.94675912 347.46566508 318.4476944 339.73450837 318.37966919 326.76765919 C318.38505473 325.53394107 318.39044026 324.30022295 318.395989 323.02911943 C318.40778744 319.6211241 318.40621291 316.21362009 318.39882219 312.80564463 C318.39408191 309.12389256 318.40660792 305.44219236 318.4168396 301.76045704 C318.43401589 294.5541745 318.43487008 287.34797919 318.4296267 280.1416815 C318.42558173 274.28333993 318.42703243 268.42502411 318.43237495 262.56668377 C318.43312338 261.7322071 318.4338718 260.89773043 318.4346429 260.03796659 C318.43617441 258.34261644 318.43771276 256.64726629 318.43925787 254.95191615 C318.45297857 239.06151641 318.44754815 223.17116593 318.43607266 207.28076731 C318.42613981 192.75055554 318.43908258 178.22047109 318.46300685 163.69027895 C318.48740194 148.76137515 318.49700477 133.83253064 318.49035412 118.90360731 C318.48686293 110.5258466 318.4890874 102.14818382 318.50660515 93.77043819 C318.52133222 86.63901906 318.52195597 79.50776683 318.50453424 72.37635095 C318.49602612 68.73972232 318.49386977 65.10339178 318.50918579 61.46677876 C318.52560081 57.52028907 318.51087598 53.57425851 318.49319458 49.62776661 C318.50279959 48.48437275 318.51240459 47.3409789 318.52230066 46.16293675 C318.43199862 36.3640542 315.73573622 29.19321578 309.05448914 21.99359608 C302.38978493 15.98526426 295.75752663 13.01806041 286.81317616 13 C285.27131633 12.99331323 285.27131633 12.99331323 283.69830781 12.98649138 C282.57575442 12.98667574 281.45320102 12.98686011 280.29663086 12.98705006 C279.09885 12.98337337 277.90106914 12.97969668 276.66699189 12.97590858 C273.34551825 12.96679938 270.02409394 12.96217594 266.70261252 12.95951927 C263.11896414 12.95560867 259.53532996 12.94603097 255.95169067 12.9373064 C247.29959597 12.91756484 238.64750013 12.90747939 229.99538854 12.89857861 C225.91875096 12.89419253 221.84211469 12.88882661 217.76547813 12.88358974 C204.21063284 12.86658091 190.65578835 12.85208678 177.10093403 12.844841 C173.58520825 12.84293119 170.06948247 12.84101084 166.55375671 12.83905506 C165.67996658 12.83857132 164.80617645 12.83808758 163.90590783 12.83758918 C149.75124795 12.82928892 135.59667258 12.80395054 121.4420496 12.77147438 C106.90310178 12.73838887 92.36419689 12.72039095 77.82521123 12.71719676 C69.66477571 12.71503321 61.50446349 12.70630708 53.34406471 12.68073559 C46.39450819 12.6590083 39.44510494 12.65098817 32.4955183 12.66070237 C28.95193357 12.66524104 25.40866494 12.66338651 21.86512375 12.64394093 C18.01737404 12.62300893 14.17005749 12.63331387 10.32226562 12.64647388 C9.21086584 12.63550464 8.09946605 12.62453539 6.95438749 12.61323375 C-3.98242806 12.70338992 -14.18051799 16.10261631 -21.19551086 24.88422108 Z " fill="#FCFCFC" transform="translate(131.0080108642578,306.86577892303467)"/>
<path d="M0 0 C6.425889 2.36032143 10.91871018 6.32916113 15.68188477 11.11669922 C16.7640477 12.18111992 16.7640477 12.18111992 17.86807251 13.26704407 C20.23635078 15.60258342 22.58952125 17.95264864 24.94140625 20.3046875 C26.59435957 21.94731454 28.24768088 23.58957135 29.90135193 25.23147583 C33.36205041 28.67276927 36.81467449 32.1219346 40.26245117 35.57617188 C44.65728195 39.97698381 49.07664565 44.35220204 53.50322056 48.72105217 C56.92571734 52.10636489 60.33184858 55.50779226 63.73371696 58.91382217 C65.35507882 60.53233147 66.98197933 62.14531377 68.61471748 63.75234604 C80.10242951 75.07811352 90.77641468 85.78711906 91.12890625 102.9140625 C90.34989944 121.56301331 79.59280069 132.12024806 66.875 144.4375 C65.50273594 145.78461617 64.13163368 147.13291688 62.76171875 148.48242188 C60.25170772 150.95196114 57.73532559 153.4145603 55.21044922 155.86889648 C53.1991268 157.82408536 51.20871875 159.79372046 49.22802734 161.78051758 C41.15236815 169.82520503 31.72087554 173.4907066 20.375 173.5625 C6.53180692 173.24551538 -2.40880991 167.60531555 -12 158 C-12.67228262 156.66948946 -13.34037858 155.33683275 -14 154 C-15.31456723 153.29705247 -16.65084194 152.63403056 -18 152 C-19.48525248 150.67672515 -20.91957625 149.29513896 -22.3125 147.875 C-23.11042969 147.06160156 -23.90835938 146.24820313 -24.73046875 145.41015625 C-26.60208359 143.42257216 -28.37531082 141.40579739 -30.125 139.3125 C-34.21108225 134.50193508 -38.94648839 130.35756824 -43.67041016 126.18676758 C-48.77135704 121.57315148 -52.72703972 117.33011542 -53.3125 110.1875 C-53 107 -53 107 -52 105 C-46.44488919 104.07838967 -41.8901918 103.70384115 -37.10546875 106.98486328 C-34.26583722 109.73461377 -31.59947235 112.58904026 -29 115.5625 C-27.20436854 117.55972068 -25.3876225 119.53314806 -23.5625 121.50390625 C-22.38880859 122.83143921 -22.38880859 122.83143921 -21.19140625 124.18579102 C-19.19612126 126.25041787 -19.19612126 126.25041787 -16.83984375 125.90600586 C-14.81878296 125.03343609 -14.81878296 125.03343609 -13 123 C-13.20249648 120.37820341 -13.75956315 119.24630116 -15.6015625 117.359375 C-16.26929688 116.82828125 -16.93703125 116.2971875 -17.625 115.75 C-20.41779678 113.42020656 -22.86621746 111.1108381 -25.1875 108.3125 C-28.72471025 104.14307344 -32.6960984 100.52069379 -36.73779297 96.85595703 C-41.05701575 92.9203373 -45.205677 88.84356283 -49.3125 84.6875 C-52.82696626 81.134476 -56.31588596 77.6162958 -60.125 74.375 C-63.65525258 71.34467426 -67.07391992 68.21342908 -70.4375 65 C-71.23728271 64.26982666 -71.23728271 64.26982666 -72.05322266 63.52490234 C-75.78134892 59.90319032 -76.90740308 57.17925464 -77 52 C-75.5 49.5625 -75.5 49.5625 -73 48 C-67.05310803 47.08509354 -62.86423811 48.77811535 -58 52 C-53.04949544 55.91302258 -48.92004698 60.068328 -45 65 C-43.10413402 66.72550014 -41.15693554 68.38276373 -39.20703125 70.046875 C-36.87242697 72.11289649 -34.68714135 74.27886164 -32.5 76.5 C-29.14602171 79.8999232 -25.68774491 83.06879232 -22.046875 86.15625 C-18.85503073 89.03134636 -15.97579331 92.20632674 -13.078125 95.375 C-11.15862452 97.21976684 -11.15862452 97.21976684 -8.859375 97 C-6.49503963 95.72842468 -6.09139344 94.39262386 -5 92 C-5.78807541 91.22191734 -5.78807541 91.22191734 -6.59207153 90.42811584 C-11.57191754 85.50868968 -16.5442825 80.58184768 -21.50863838 75.64679813 C-24.06036633 73.11064396 -26.6147727 70.57732214 -29.17578125 68.05053711 C-31.65289223 65.60631809 -34.12233617 63.15457895 -36.58691025 60.69772148 C-37.97422206 59.3185496 -39.36911992 57.94702184 -40.76419067 56.57569885 C-49.26950378 48.07262558 -57.07216204 39.0822926 -57.25 26.5625 C-57.16951788 22.16951788 -57.16951788 22.16951788 -56 21 C-52.71888282 20.54064359 -50.15372655 20.31132182 -47.2265625 22.05859375 C-41.97155202 26.44569526 -37.67113426 31.81776032 -33.28515625 37.04296875 C-30.58590349 40.20739886 -27.91187328 43.15949745 -24.703125 45.8125 C-20.59490103 49.36122164 -16.78885032 53.16413515 -12.98046875 57.02734375 C-12.35096817 57.66474991 -11.72146759 58.30215607 -11.07289124 58.95887756 C-8.43583942 61.63242794 -5.80191398 64.30891011 -3.17700195 66.99438477 C-1.24313229 68.97037223 0.69988949 70.93696478 2.64453125 72.90234375 C3.23829056 73.51472397 3.83204987 74.12710419 4.44380188 74.75804138 C5.90653362 76.2298844 7.44768708 77.6229631 9 79 C9.99 79 10.98 79 12 79 C13.70532323 77.05990478 13.70532323 77.05990478 15 75 C13.59896549 71.71900591 12.00653684 69.92585065 9.25 67.6875 C6.57800816 65.4336076 4.21295618 63.20539973 2 60.5 C-0.04655713 58.01567664 -2.15521796 55.93823356 -4.625 53.875 C-8.40206489 50.67679563 -11.68528587 47.16134414 -15 43.5 C-19.41361698 38.63754061 -23.94714783 34.203973 -29 30 C-30.65169175 28.56923517 -32.29743733 27.13158034 -33.9375 25.6875 C-34.68902344 25.03136719 -35.44054687 24.37523437 -36.21484375 23.69921875 C-38.62317573 21.40682397 -38.96523004 20.40854699 -39.25 17.0625 C-39 14 -39 14 -37.74609375 12.3359375 C-35.60844973 10.70042463 -34.48417993 10.56722864 -31.8125 10.5625 C-31.09707031 10.54316406 -30.38164062 10.52382813 -29.64453125 10.50390625 C-22.44200267 11.85504529 -17.13879723 16.23618678 -12.02734375 21.2265625 C-11.39070297 21.83448639 -10.75406219 22.44241028 -10.09812927 23.0687561 C-8.05212359 25.03265123 -6.02343792 27.01287174 -4 29 C-3.32221497 29.66559937 -2.64442993 30.33119873 -1.94610596 31.01696777 C2.87942713 35.77226291 7.66201252 40.56953492 12.4375 45.375 C13.86239098 46.80492593 15.28752021 48.23461448 16.71289062 49.6640625 C20.14466392 53.10666062 23.57325286 56.55239914 27 60 C30.06275206 58.81951962 30.06275206 58.81951962 31.88671875 56.21020508 C32.24317441 53.84012833 32.24317441 53.84012833 30.3671875 51.79956055 C29.13355469 50.60520386 29.13355469 50.60520386 27.875 49.38671875 C26.95074219 48.47897705 26.02648437 47.57123535 25.07421875 46.63598633 C24.57325684 46.1556192 24.07229492 45.67525208 23.55615234 45.18032837 C21.99045034 43.67833894 20.4408185 42.16135699 18.89453125 40.6394043 C15.61003073 37.41211022 12.30647176 34.20475994 9 31 C5.16920525 27.287046 1.34657716 23.56643487 -2.45556641 19.8241272 C-3.98528485 18.32690258 -5.52924727 16.84547062 -7.07421875 15.36401367 C-7.99847656 14.45627197 -8.92273438 13.54853027 -9.875 12.61328125 C-10.69742188 11.81704346 -11.51984375 11.02080566 -12.3671875 10.20043945 C-14 8 -14 8 -13.921875 5.85229492 C-11.143098 0.26898425 -5.66729678 -0.78169611 0 0 Z " fill="#010101" transform="translate(298,445)"/>
<path d="M0 0 C9.57 0 19.14 0 29 0 C29 17.82 29 35.64 29 54 C45.5 54 62 54 79 54 C79 36.18 79 18.36 79 0 C88.57 0 98.14 0 108 0 C108 44.55 108 89.1 108 135 C98.43 135 88.86 135 79 135 C79 116.52 79 98.04 79 79 C62.5 79 46 79 29 79 C29 97.48 29 115.96 29 135 C19.43 135 9.86 135 0 135 C0 90.45 0 45.9 0 0 Z " fill="#FCFCFC" transform="translate(506,344)"/>
<path d="M0 0 C9.24 0 18.48 0 28 0 C28 17.82 28 35.64 28 54 C44.17 54 60.34 54 77 54 C77 36.18 77 18.36 77 0 C86.24 0 95.48 0 105 0 C105 44.22 105 88.44 105 134 C95.76 134 86.52 134 77 134 C77 115.52 77 97.04 77 78 C60.83 78 44.66 78 28 78 C28 96.48 28 114.96 28 134 C18.76 134 9.52 134 0 134 C0 89.78 0 45.56 0 0 Z " fill="#FDFDFD" transform="translate(506,513)"/>
<path d="M0 0 C11.13638595 9.65570542 17.03209073 20.47480296 18.859375 35.12890625 C19.16012298 40.01346823 19.0859375 44.91478183 19.0859375 49.80859375 C-3.0240625 49.80859375 -25.1340625 49.80859375 -47.9140625 49.80859375 C-45.05571934 61.3886408 -45.05571934 61.3886408 -37.9140625 69.80859375 C-30.38691436 73.74259381 -22.66841766 73.69103459 -14.6015625 71.62109375 C-10.39291306 70.24870806 -8.21790513 68.71510952 -5.9140625 64.80859375 C-5.5840625 64.14859375 -5.2540625 63.48859375 -4.9140625 62.80859375 C0.29454767 63.4814764 4.97674565 64.99643859 9.8984375 66.74609375 C10.67380859 67.01099609 11.44917969 67.27589844 12.24804688 67.54882812 C17.96366337 69.56404549 17.96366337 69.56404549 19.0859375 71.80859375 C12.72242772 82.87556728 2.5059487 88.6935503 -9.37109375 92.62109375 C-24.10810881 96.23630698 -40.32383469 94.37862423 -53.4765625 86.87109375 C-57.07983159 84.51781866 -60.05662582 82.05217052 -62.9140625 78.80859375 C-63.46707031 78.25816406 -64.02007813 77.70773437 -64.58984375 77.140625 C-75.55314059 65.75475997 -76.30448469 52.22317192 -76.125 37.2890625 C-75.83044855 26.57429904 -72.9839599 18.59611277 -66.9140625 9.80859375 C-66.3365625 8.92171875 -65.7590625 8.03484375 -65.1640625 7.12109375 C-48.87881311 -9.61652368 -19.31947998 -14.39983545 0 0 Z " fill="#FDFDFD" transform="translate(701.9140625,388.19140625)"/>
<path d="M0 0 C6.58100774 5.29241881 12.37635517 10.71358658 15.234375 18.796875 C15.53085937 19.621875 15.82734375 20.446875 16.1328125 21.296875 C19.13922687 31.22631696 18.234375 38.66971135 18.234375 49.796875 C-2.885625 49.796875 -24.005625 49.796875 -45.765625 49.796875 C-42.16207124 61.72691033 -42.16207124 61.72691033 -33.765625 69.8125 C-25.94304923 72.80028936 -18.54387358 72.65834045 -10.71484375 69.7890625 C-7.18437631 67.9919909 -5.48735658 65.24033817 -3.765625 61.796875 C3.56455823 63.14074193 10.66216235 65.20136256 17.234375 68.796875 C18.234375 71.796875 18.234375 71.796875 17.37109375 73.8125 C10.62718997 84.21010907 0.26708204 90.19865735 -11.765625 92.796875 C-15.30402681 93.04316747 -18.8444931 93.02803765 -22.390625 93.046875 C-23.33808594 93.0675 -24.28554688 93.088125 -25.26171875 93.109375 C-37.70896136 93.17748577 -47.84440135 89.14133001 -57.0625 80.69140625 C-68.53238537 68.51004302 -71.53584195 52.91350175 -71.10546875 36.59375 C-69.92858409 23.44510762 -66.38147302 12.43546818 -56.1171875 3.48828125 C-39.86104115 -8.92012178 -17.36515036 -12.43886657 0 0 Z " fill="#FDFDFD" transform="translate(964.765625,555.203125)"/>
<path d="M0 0 C7.59 0 15.18 0 23 0 C23.01981934 1.59279785 23.03963867 3.1855957 23.06005859 4.82666016 C23.13672374 10.79441872 23.22534238 16.7619526 23.31738281 22.72949219 C23.35542287 25.30138683 23.39031693 27.87333016 23.421875 30.4453125 C23.46807284 34.16423836 23.52597162 37.88283607 23.5859375 41.6015625 C23.59748871 42.73236237 23.60903992 43.86316223 23.62094116 45.02822876 C23.21255696 58.95620326 23.21255696 58.95620326 27.88900757 71.33828735 C32.76717011 75.17823688 39.08998017 74.57143238 45 74 C48.51662056 72.43559628 48.51662056 72.43559628 51 70 C51.763125 69.34 52.52625 68.68 53.3125 68 C56.38856731 64.3542906 56.13938241 60.48912203 56.20532227 55.85449219 C56.22526749 54.61350769 56.24521271 53.37252319 56.26576233 52.09393311 C56.28274393 50.744915 56.29962283 49.39589559 56.31640625 48.046875 C56.33698876 46.66253049 56.35798557 45.27819208 56.37937927 43.89385986 C56.43446607 40.257456 56.48393414 36.62099667 56.53222656 32.98449707 C56.58253964 29.27086475 56.63817442 25.55731256 56.69335938 21.84375 C56.80077707 14.56256608 56.90176606 7.28131467 57 0 C64.59 0 72.18 0 80 0 C80 31.02 80 62.04 80 94 C72.41 94 64.82 94 57 94 C56.505 90.04 56.505 90.04 56 86 C55.50371094 86.47050781 55.00742187 86.94101562 54.49609375 87.42578125 C46.38117768 94.86317112 38.91455084 97.35889853 27.90625 97.2109375 C19.79533233 96.62224186 12.72871739 93.86906459 7 88 C-0.46264336 77.74598622 -0.28008156 66.85483402 -0.1953125 54.6875 C-0.19157696 53.10709818 -0.18873255 51.52669403 -0.18673706 49.94628906 C-0.17914315 45.81005326 -0.15953168 41.6739605 -0.1373291 37.53778076 C-0.11677872 33.30775893 -0.10771578 29.07771373 -0.09765625 24.84765625 C-0.07628128 16.56503158 -0.0411343 8.28255013 0 0 Z " fill="#FEFDFD" transform="translate(624,552)"/>
<path d="M0 0 C6.47410905 4.65681528 9.72211104 11.08063446 11.44921875 18.76171875 C11.44921875 19.75171875 11.44921875 20.74171875 11.44921875 21.76171875 C9.20953638 22.88155994 7.58365215 23.04827541 5.09765625 23.296875 C4.246875 23.38388672 3.39609375 23.47089844 2.51953125 23.56054688 C1.63007812 23.64755859 0.740625 23.73457031 -0.17578125 23.82421875 C-1.07296875 23.91509766 -1.97015625 24.00597656 -2.89453125 24.09960938 C-5.11295397 24.32381167 -7.33167885 24.54436441 -9.55078125 24.76171875 C-9.80472656 24.20742188 -10.05867187 23.653125 -10.3203125 23.08203125 C-10.66449219 22.35757813 -11.00867188 21.633125 -11.36328125 20.88671875 C-11.69972656 20.16742187 -12.03617188 19.448125 -12.3828125 18.70703125 C-13.87550556 16.22087358 -15.61199836 15.07397051 -18.359375 14.16015625 C-24.49189331 13.04515292 -30.37822561 12.95161326 -36.23828125 15.13671875 C-38.64503925 16.5546602 -38.64503925 16.5546602 -39.55078125 18.76171875 C-39.62028666 20.30195871 -39.63530482 21.84506863 -39.61328125 23.38671875 C-39.60425781 24.20398438 -39.59523438 25.02125 -39.5859375 25.86328125 C-39.57433594 26.48976563 -39.56273437 27.11625 -39.55078125 27.76171875 C-37.85778569 28.18496764 -36.16477242 28.60814583 -34.47167969 29.03100586 C-33.01108679 29.3964826 -31.55080488 29.76320418 -30.09082031 30.13110352 C-26.81197409 30.95584618 -23.53430454 31.76548819 -20.23828125 32.51953125 C-6.8705921 35.61258698 4.58350484 40.13566888 12.57421875 51.88671875 C14.68328459 61.22686749 14.82154832 70.35395436 9.8671875 78.75 C7.95048683 81.46928607 6.00902975 83.62854291 3.44921875 85.76171875 C2.94777344 86.19097656 2.44632813 86.62023437 1.9296875 87.0625 C-5.80598747 93.2039375 -14.87669463 94.30505288 -24.48828125 94.19921875 C-25.45467529 94.19164551 -26.42106934 94.18407227 -27.41674805 94.17626953 C-34.4250241 94.01415323 -40.34835287 93.2290485 -46.55078125 89.76171875 C-47.75734375 89.10816406 -47.75734375 89.10816406 -48.98828125 88.44140625 C-55.72829485 84.38409543 -61.39706812 78.51508603 -63.55078125 70.76171875 C-63.55078125 69.44171875 -63.55078125 68.12171875 -63.55078125 66.76171875 C-55.9147714 64.98630337 -48.36949165 64.22740997 -40.55078125 63.76171875 C-40.27105469 64.30441406 -39.99132812 64.84710937 -39.703125 65.40625 C-37.61723106 69.12866523 -36.03750641 71.44048015 -32.42578125 73.82421875 C-26.18429627 75.33425544 -20.48608783 74.75972299 -14.42578125 72.69921875 C-11.98670735 70.17884239 -11.6817704 68.19984708 -11.203125 64.796875 C-11.72232669 61.75750334 -13.22046365 60.72894819 -15.55078125 58.76171875 C-18.43428291 57.59218676 -18.43428291 57.59218676 -21.6796875 56.83203125 C-22.88044922 56.51105469 -24.08121094 56.19007813 -25.31835938 55.859375 C-27.82077025 55.21799537 -30.32337035 54.57735352 -32.82617188 53.9375 C-43.42855543 51.10191314 -54.46829454 47.57423215 -60.55078125 37.76171875 C-63.95216848 30.93540529 -63.61863327 22.02762244 -61.79296875 14.734375 C-58.30794161 5.61018977 -53.17040707 1.11531786 -44.55078125 -3.23828125 C-30.75847025 -9.3885963 -12.84338548 -7.56678773 0 0 Z " fill="#FCFCFC" transform="translate(777.55078125,554.23828125)"/>
<path d="M0 0 C7.59 0 15.18 0 23 0 C23 8.58 23 17.16 23 26 C29.6 26 36.2 26 43 26 C43 32.27 43 38.54 43 45 C36.4 45 29.8 45 23 45 C23.09713999 51.28086717 23.20000028 57.56110607 23.31738281 63.84155273 C23.35556906 65.97626097 23.39043968 68.11103129 23.421875 70.24584961 C23.46775077 73.32167686 23.52570794 76.3970806 23.5859375 79.47265625 C23.60326431 80.89494286 23.60326431 80.89494286 23.62094116 82.34596252 C23.73644388 87.58002712 24.15229195 92.07900113 26 97 C29.66663734 100.15864851 33.07694924 100.44833077 37.8125 100.6875 C40.8753125 100.8421875 40.8753125 100.8421875 44 101 C44 107.93 44 114.86 44 122 C31.56048501 124.487903 18.52334788 124.48047402 7.6875 117.375 C3.35079488 114.37476376 1.49931114 109.91432678 0 105 C-0.52432518 100.32347143 -0.46728525 95.69695662 -0.390625 90.99609375 C-0.38496521 89.67706558 -0.37930542 88.35803741 -0.37347412 86.9990387 C-0.35832844 83.52180688 -0.31914602 80.04526199 -0.2746582 76.56829834 C-0.23346341 73.00851733 -0.21541191 69.44862343 -0.1953125 65.88867188 C-0.15263775 58.92547361 -0.08238173 51.96284068 0 45 C-3.96 45 -7.92 45 -12 45 C-12 38.73 -12 32.46 -12 26 C-8.37 25.67 -4.74 25.34 -1 25 C-0.67 16.75 -0.34 8.5 0 0 Z " fill="#FDFDFD" transform="translate(806,525)"/>
<path d="M0 0 C8.25 0 16.5 0 25 0 C25 44.55 25 89.1 25 135 C16.75 135 8.5 135 0 135 C0 90.45 0 45.9 0 0 Z " fill="#FCFCFC" transform="translate(860,511)"/>
<path d="M0 0 C0 7.26 0 14.52 0 22 C-3.42248702 23.14082901 -6.53236297 23.35000986 -10.125 23.6875 C-17.02459628 24.52200841 -21.99882814 26.06157863 -27 31 C-32.2272123 38.42779863 -32.73616644 45.59067625 -32.70703125 54.4453125 C-32.72215256 55.69633759 -32.73727386 56.94736267 -32.75285339 58.23629761 C-32.78831712 61.52764562 -32.80287134 64.81817301 -32.80688477 68.10968018 C-32.81628136 71.48213895 -32.85346841 74.85429067 -32.88867188 78.2265625 C-32.95547819 84.81811915 -32.97662261 91.40757686 -33 98 C-41.91 98 -50.82 98 -60 98 C-60 66.32 -60 34.64 -60 2 C-51.75 2 -43.5 2 -35 2 C-34.67 6.29 -34.34 10.58 -34 15 C-33.01 13.618125 -32.02 12.23625 -31 10.8125 C-24.38760392 2.3337018 -10.85714313 -5.42857156 0 0 Z " fill="#FEFEFE" transform="translate(793,381)"/>
<path d="M0 0 C1.31250229 -0.00422974 1.31250229 -0.00422974 2.65151978 -0.00854492 C4.1024855 -0.00550858 4.1024855 -0.00550858 5.58276367 -0.00241089 C6.59567474 -0.00416321 7.60858582 -0.00591553 8.65219116 -0.00772095 C12.01838874 -0.01214158 15.38453426 -0.00920073 18.75073242 -0.00582886 C21.07861338 -0.00650184 23.40649428 -0.00747181 25.734375 -0.00872803 C30.62036811 -0.01020529 35.50634299 -0.00804954 40.39233398 -0.00338745 C46.67095898 0.00230985 52.94954124 -0.00096901 59.22816467 -0.00695992 C64.03723475 -0.01056477 68.84629461 -0.00942729 73.65536499 -0.00683212 C75.97114059 -0.00616264 78.28691711 -0.006992 80.60269165 -0.00931168 C83.83305334 -0.01183696 87.06334475 -0.00799935 90.29370117 -0.00241089 C91.26101166 -0.00443512 92.22832214 -0.00645935 93.22494507 -0.00854492 C94.09994659 -0.0057251 94.97494812 -0.00290527 95.87646484 0 C96.64117599 0.00037703 97.40588715 0.00075405 98.19377136 0.0011425 C99.93823242 0.12698364 99.93823242 0.12698364 100.93823242 1.12698364 C100.93823242 11.02698364 100.93823242 20.92698364 100.93823242 31.12698364 C65.95823242 31.12698364 30.97823242 31.12698364 -5.06176758 31.12698364 C-5.06176758 0.0024956 -5.06176758 0.0024956 0 0 Z " fill="#000000" transform="translate(230.061767578125,358.8730163574219)"/>
<path d="M0 0 C3.67896551 1.32136014 6.03350675 3.77542606 8.765625 6.5 C10.09980469 7.8303125 10.09980469 7.8303125 11.4609375 9.1875 C12.84152344 10.5796875 12.84152344 10.5796875 14.25 12 C15.18585938 12.928125 16.12171875 13.85625 17.0859375 14.8125 C17.97023437 15.699375 18.85453125 16.58625 19.765625 17.5 C20.57805664 18.3146875 21.39048828 19.129375 22.22753906 19.96875 C24 22 24 22 24 24 C24.66 24 25.32 24 26 24 C27.1426453 25.07443179 28.27331756 26.16305353 29.35995483 27.2940979 C31.34747254 29.3614255 33.38412351 31.37475172 35.4230957 33.39135742 C39.56565762 37.50210254 43.70394754 41.61711269 47.83901691 45.73539257 C50.33350935 48.21938732 52.82986787 50.70144904 55.33032227 53.17944336 C58.22180279 56.04513094 61.10523939 58.91879143 63.98828125 61.79296875 C64.89129471 62.68565964 65.79430817 63.57835052 66.72468567 64.49809265 C67.54941879 65.32267471 68.37415192 66.14725677 69.22387695 66.99682617 C69.95492142 67.72342941 70.68596588 68.45003265 71.43916321 69.19865417 C73 71 73 71 73 73 C73.66 73 74.32 73 75 73 C74.42118732 76.54822446 73.17307641 78.18422803 70.62109375 80.671875 C69.94755859 81.33574219 69.27402344 81.99960937 68.58007812 82.68359375 C67.87302734 83.36550781 67.16597656 84.04742188 66.4375 84.75 C65.37112305 85.79607422 65.37112305 85.79607422 64.28320312 86.86328125 C62.52869286 88.5824658 60.76756648 90.29425872 59 92 C47.45238806 87.11530981 37.24296338 73.37688543 28.484375 64.58203125 C27.13411159 63.22989726 25.78362316 61.87798796 24.43292236 60.52629089 C20.91929427 57.00888794 17.40868238 53.48849023 13.89874268 49.96740723 C10.30023783 46.35857859 6.69881586 42.75266354 3.09765625 39.14648438 C-3.93771436 32.10046548 -10.9698942 25.05127156 -18 18 C-16.81031868 16.8136496 -16.81031868 16.8136496 -15.59660339 15.60333252 C-13.7385789 13.74049294 -11.9312717 11.87815575 -10.17578125 9.921875 C-9.70462891 9.40109375 -9.23347656 8.8803125 -8.74804688 8.34375 C-7.77799588 7.26679543 -6.80927899 6.18863791 -5.84179688 5.109375 C-2.21517857 1.10758929 -2.21517857 1.10758929 0 0 Z " fill="#010101" transform="translate(151,559)"/>
<path d="M0 0 C8.29000142 3.05980659 14.61853267 10.43201097 19 18 C18.33613281 18.65226563 17.67226563 19.30453125 16.98828125 19.9765625 C11.2602245 25.58637298 11.2602245 25.58637298 6 31.625 C5.01 32.800625 5.01 32.800625 4 34 C3.34 34 2.68 34 2 34 C2 34.66 2 35.32 2 36 C1.34 36 0.68 36 0 36 C-0.40807137 36.89604698 -0.40807137 36.89604698 -0.8243866 37.81019592 C-1.97565242 39.954648 -3.09137816 41.33382652 -4.80981445 43.03686523 C-5.37412674 43.60102646 -5.93843903 44.16518768 -6.51985168 44.7464447 C-7.12818344 45.34445389 -7.7365152 45.94246307 -8.36328125 46.55859375 C-8.99227829 47.18476089 -9.62127533 47.81092804 -10.26933289 48.45606995 C-12.27906716 50.45463254 -14.29563129 52.44613995 -16.3125 54.4375 C-17.65866295 55.77362542 -19.00437118 57.11020915 -20.34960938 58.44726562 C-22.83092933 60.91228168 -25.31486912 63.37458974 -27.80200195 65.83374023 C-31.84565519 69.8340485 -35.8667529 73.85515594 -39.84765625 77.91796875 C-41.25250167 79.34124701 -42.65745184 80.76442189 -44.0625 82.1875 C-44.76955078 82.91130859 -45.47660156 83.63511719 -46.20507812 84.38085938 C-46.89150391 85.07373047 -47.57792969 85.76660156 -48.28515625 86.48046875 C-48.90269775 87.10848389 -49.52023926 87.73649902 -50.15649414 88.38354492 C-52.0133567 90.01171165 -53.74940987 91.00695547 -56 92 C-58 90.625 -58 90.625 -60 89 C-60 88.34 -60 87.68 -60 87 C-60.66 87 -61.32 87 -62 87 C-62 86.34 -62 85.68 -62 85 C-62.66 85 -63.32 85 -64 85 C-67.34645017 81.91774326 -70.2239921 78.59852875 -73 75 C-68.55390333 69.73924587 -63.96670493 64.64415185 -59.25 59.625 C-58.54625244 58.87549072 -57.84250488 58.12598145 -57.11743164 57.35375977 C-52.70457914 52.69397778 -48.22898348 48.27824853 -43.30859375 44.15234375 C-41.32298219 42.30112215 -39.62233802 40.43823244 -37.86328125 38.37915039 C-34.04618116 33.99221198 -30.00443793 29.87668889 -25.87890625 25.78125 C-24.76176491 24.66623108 -24.76176491 24.66623108 -23.62205505 23.52868652 C-21.27123255 21.18340699 -18.91693569 18.84165164 -16.5625 16.5 C-14.95614801 14.89867039 -13.35002603 13.29711002 -11.74414062 11.6953125 C-7.83208015 7.79420527 -3.91717048 3.8959758 0 0 Z " fill="#020202" transform="translate(410,559)"/>
<path d="M0 0 C4.65025892 2.30508524 6.70729273 5.72093219 8.75 10.3359375 C9.41 13.3059375 10.07 16.2759375 10.75 19.3359375 C-2.45 19.3359375 -15.65 19.3359375 -29.25 19.3359375 C-26.37728294 6.40871075 -26.37728294 6.40871075 -19.8125 1.4609375 C-13.84462016 -1.99238623 -6.51671497 -1.92333601 0 0 Z " fill="#010101" transform="translate(948.25,568.6640625)"/>
<path d="M0 0 C6.55504925 5.755653 6.64457103 7.66035513 8.5625 17.25 C-4.6375 17.25 -17.8375 17.25 -31.4375 17.25 C-30.49892611 10.67998279 -29.76396325 5.90024177 -24.53515625 1.734375 C-16.73326419 -3.32159974 -8.53902888 -4.34714197 0 0 Z " fill="#020202" transform="translate(686.4375,402.75)"/>
</svg>
